<?xml version="1.0" encoding="utf-8"?>
<!-- Generator: Adobe Illustrator 23.0.3, SVG Export Plug-In . SVG Version: 6.00 Build 0)  -->
<svg version="1.1" id="Layer_1" xmlns="http://www.w3.org/2000/svg" xmlns:xlink="http://www.w3.org/1999/xlink" x="0px" y="0px"
	 viewBox="0 0 60 60" style="enable-background:new 0 0 60 60;" xml:space="preserve">
<style type="text/css">
	.st0{fill:#040D1F;}
	.st1{fill:#FFFFFF;}
	.st2{fill:#8ED6FB;}
	.st3{fill:#1C78C0;}
	.st4{fill:#DD0031;}
	.st5{fill:#C3002F;}
</style>
<path class="st0" d="M12.8,42.7h-2.4V50h-1v-7.3H7.1v-0.9h5.7C12.8,41.9,12.8,42.7,12.8,42.7z"/>
<path class="st0" d="M17.3,44.2L14.6,51c-0.5,1.2-1.2,1.8-2,1.8c-0.2,0-0.4,0-0.6-0.1v-0.8c0.2,0.1,0.4,0.1,0.5,0.1
	c0.5,0,0.8-0.3,1.1-0.9l0.5-1.1l-2.3-5.9h1l1.6,4.5c0,0.1,0.1,0.2,0.1,0.4l0,0c0-0.1,0.1-0.2,0.1-0.4l1.7-4.5
	C16.3,44.2,17.3,44.2,17.3,44.2z M18.8,49.2L18.8,49.2v3.5h-0.9v-8.6h0.9v1l0,0c0.5-0.8,1.1-1.2,2-1.2c0.8,0,1.3,0.3,1.8,0.8
	c0.4,0.5,0.6,1.2,0.6,2.1c0,1-0.2,1.8-0.7,2.4c-0.5,0.6-1.1,0.9-2,0.9C19.9,50.2,19.3,49.9,18.8,49.2L18.8,49.2z M18.8,46.9v0.8
	c0,0.5,0.2,0.9,0.5,1.2s0.7,0.5,1.2,0.5c0.6,0,1-0.2,1.3-0.7c0.3-0.4,0.5-1,0.5-1.8c0-0.7-0.1-1.2-0.4-1.5c-0.3-0.4-0.7-0.5-1.2-0.5
	s-1,0.2-1.3,0.6C19,45.8,18.8,46.3,18.8,46.9L18.8,46.9z M29,47.4h-4.1c0,0.7,0.2,1.2,0.5,1.5c0.3,0.4,0.8,0.5,1.4,0.5
	c0.7,0,1.3-0.2,1.8-0.7v0.9c-0.5,0.4-1.2,0.6-2,0.6s-1.5-0.3-2-0.8s-0.7-1.3-0.7-2.2s0.3-1.7,0.8-2.2c0.5-0.6,1.2-0.9,1.9-0.9
	c0.8,0,1.4,0.2,1.8,0.8c0.4,0.5,0.6,1.2,0.6,2.1L29,47.4L29,47.4z M28.1,46.6c0-0.5-0.1-1-0.4-1.3s-0.6-0.4-1.1-0.4
	c-0.4,0-0.8,0.2-1.1,0.5c-0.3,0.3-0.5,0.7-0.6,1.2H28.1z M29.5,49.8v-0.7c0.6,0.4,1.2,0.6,1.8,0.6c0.6,0,1.1-0.1,1.5-0.4
	c0.3-0.3,0.5-0.6,0.5-1.1c0-0.4-0.1-0.8-0.3-1s-0.7-0.6-1.4-1c-0.8-0.5-1.4-0.9-1.6-1.2s-0.3-0.7-0.3-1.1c0-0.6,0.2-1.1,0.7-1.5
	c0.4-0.4,1.1-0.6,1.8-0.6c0.5,0,1,0.1,1.5,0.2v0.6c-0.5-0.2-1-0.3-1.5-0.3c-0.6,0-1,0.1-1.3,0.4c-0.3,0.3-0.5,0.6-0.5,1.1
	c0,0.4,0.1,0.8,0.3,1c0.2,0.2,0.7,0.6,1.4,1c0.8,0.4,1.3,0.8,1.5,1.2s0.4,0.7,0.4,1.2c0,0.6-0.2,1.1-0.7,1.5
	c-0.4,0.4-1.1,0.6-1.9,0.6c-0.3,0-0.6,0-1-0.1C29.9,50,29.7,49.9,29.5,49.8L29.5,49.8L29.5,49.8z M38.7,49.8c-0.4,0.3-1,0.4-1.6,0.4
	c-0.8,0-1.4-0.3-1.9-0.8s-0.7-1.3-0.7-2.2s0.3-1.7,0.8-2.3s1.3-0.9,2.1-0.9c0.4,0,0.9,0.1,1.3,0.3v0.6c-0.4-0.3-0.9-0.4-1.4-0.4
	c-0.7,0-1.2,0.2-1.7,0.7c-0.4,0.5-0.6,1.1-0.6,1.9c0,0.8,0.2,1.4,0.6,1.8c0.4,0.5,0.9,0.7,1.5,0.7s1.1-0.2,1.5-0.5
	C38.7,49.3,38.7,49.8,38.7,49.8z M42.2,44.8c-0.2-0.1-0.4-0.2-0.6-0.2c-0.5,0-0.9,0.2-1.2,0.7s-0.5,1.2-0.5,2v2.8h-0.5v-5.9H40v1.3
	l0,0c0.1-0.4,0.3-0.8,0.6-1s0.6-0.4,1-0.4c0.2,0,0.4,0,0.6,0.1L42.2,44.8L42.2,44.8L42.2,44.8z M43,42.7c-0.1,0-0.2,0-0.3-0.1
	s-0.1-0.2-0.1-0.3s0-0.2,0.1-0.3s0.2-0.1,0.3-0.1s0.2,0,0.3,0.1s0.1,0.2,0.1,0.3s0,0.2-0.1,0.3C43.3,42.7,43.2,42.7,43,42.7z
	 M42.8,50.1v-5.9h0.5v5.9H42.8z M45.1,49L45.1,49v3.7h-0.5v-8.6h0.5v1.2l0,0c0.2-0.4,0.5-0.8,0.9-1s0.8-0.3,1.3-0.3
	c0.8,0,1.3,0.3,1.8,0.8c0.4,0.5,0.6,1.2,0.6,2.1c0,1-0.2,1.8-0.7,2.4s-1.1,0.9-1.9,0.9C46.2,50.2,45.5,49.8,45.1,49z M45.1,46.8v0.7
	c0,0.6,0.2,1.1,0.5,1.5c0.4,0.4,0.9,0.6,1.5,0.6s1.1-0.3,1.5-0.8s0.6-1.2,0.6-2c0-0.7-0.2-1.3-0.5-1.8c-0.3-0.4-0.8-0.7-1.4-0.7
	c-0.7,0-1.2,0.2-1.6,0.7C45.3,45.7,45.1,46.2,45.1,46.8z M52.9,50c-0.3,0.1-0.5,0.2-0.8,0.2c-0.9,0-1.3-0.5-1.3-1.6v-3.9h-1.1v-0.5
	h1.1v-1.5l0.3-0.1l0.3-0.1v1.7h1.5v0.5h-1.5v3.9c0,0.4,0.1,0.7,0.2,0.9c0.1,0.2,0.3,0.3,0.7,0.3c0.2,0,0.4-0.1,0.7-0.2V50H52.9z"/>
<path class="st1" d="M46.4,7.2L60,14.8v15.3l-13.6,7.7l-13.6-7.7V14.8C32.9,14.8,46.4,7.2,46.4,7.2z"/>
<path class="st2" d="M57.6,29.6l-10.7,6V31l6.7-3.7L57.6,29.6z M58.3,29V16.3l-3.9,2.3v8.1L58.3,29z M35.3,29.6l10.7,6V31l-6.7-3.7
	L35.3,29.6z M34.5,29V16.3l3.9,2.3v8.1L34.5,29z M35,15.5l11-6.2v4.6l-7,3.9h-0.1L35,15.5L35,15.5z M57.9,15.5l-11-6.2v4.6l7,3.9H54
	L57.9,15.5z"/>
<path class="st3" d="M46,29.9l-6.6-3.6v-7.2l6.6,3.8V29.9z M46.9,29.9l6.6-3.6v-7.2l-6.6,3.8V29.9z M39.8,18.3l6.6-3.6l6.6,3.6
	l-6.6,3.8L39.8,18.3L39.8,18.3z"/>
<path class="st4" d="M14.3,7.2L0,12.3l2.2,18.9l12.1,6.7l12.1-6.7l2.2-18.9C28.6,12.3,14.3,7.2,14.3,7.2z"/>
<path class="st5" d="M14.3,7.2v3.4l0,0v27.3l12.1-6.7l2.2-18.9C28.6,12.3,14.3,7.2,14.3,7.2z"/>
<path class="st1" d="M14.3,10.6l-8.9,20h3.3l1.8-4.5h7.6l1.8,4.5h3.3C23.2,30.6,14.3,10.6,14.3,10.6z M16.9,23.3h-5.2l2.6-6.3
	L16.9,23.3z"/>
</svg>
