<svg version="1.1" id="Layer_1" xmlns="http://www.w3.org/2000/svg" x="0" y="0" viewBox="0 0 60 60" xml:space="preserve"><style>.st0{fill:#040d1f}.st1{fill:#fff}</style><path class="st0" d="M12.8 42.7h-2.4V50h-1v-7.3H7.1v-.9h5.7v.9z"/><path class="st0" d="M17.3 44.2L14.6 51c-.5 1.2-1.2 1.8-2 1.8-.2 0-.4 0-.6-.1v-.8c.2.1.4.1.5.1.5 0 .8-.3 1.1-.9l.5-1.1-2.3-5.9h1l1.6 4.5c0 .1.1.2.1.4 0-.1.1-.2.1-.4l1.7-4.5c0 .1 1 .1 1 .1zm1.5 5v3.5h-.9v-8.6h.9v1c.5-.8 1.1-1.2 2-1.2.8 0 1.3.3 1.8.8.4.5.6 1.2.6 2.1 0 1-.2 1.8-.7 2.4-.5.6-1.1.9-2 .9-.6.1-1.2-.2-1.7-.9zm0-2.3v.8c0 .5.2.9.5 1.2s.7.5 1.2.5c.6 0 1-.2 1.3-.7.3-.4.5-1 .5-1.8 0-.7-.1-1.2-.4-1.5-.3-.4-.7-.5-1.2-.5s-1 .2-1.3.6c-.4.3-.6.8-.6 1.4zm10.2.5h-4.1c0 .7.2 1.2.5 1.5.3.4.8.5 1.4.5.7 0 1.3-.2 1.8-.7v.9c-.5.4-1.2.6-2 .6s-1.5-.3-2-.8-.7-1.3-.7-2.2.3-1.7.8-2.2c.5-.6 1.2-.9 1.9-.9.8 0 1.4.2 1.8.8.4.5.6 1.2.6 2.1v.4zm-.9-.8c0-.5-.1-1-.4-1.3s-.6-.4-1.1-.4c-.4 0-.8.2-1.1.5-.3.3-.5.7-.6 1.2h3.2zm1.4 3.2v-.7c.6.4 1.2.6 1.8.6.6 0 1.1-.1 1.5-.4.3-.3.5-.6.5-1.1 0-.4-.1-.8-.3-1s-.7-.6-1.4-1c-.8-.5-1.4-.9-1.6-1.2s-.3-.7-.3-1.1c0-.6.2-1.1.7-1.5.4-.4 1.1-.6 1.8-.6.5 0 1 .1 1.5.2v.6c-.5-.2-1-.3-1.5-.3-.6 0-1 .1-1.3.4-.3.3-.5.6-.5 1.1 0 .4.1.8.3 1 .2.2.7.6 1.4 1 .8.4 1.3.8 1.5 1.2s.4.7.4 1.2c0 .6-.2 1.1-.7 1.5-.4.4-1.1.6-1.9.6-.3 0-.6 0-1-.1-.5-.2-.7-.3-.9-.4zm9.2 0c-.4.3-1 .4-1.6.4-.8 0-1.4-.3-1.9-.8s-.7-1.3-.7-2.2.3-1.7.8-2.3 1.3-.9 2.1-.9c.4 0 .9.1 1.3.3v.6c-.4-.3-.9-.4-1.4-.4-.7 0-1.2.2-1.7.7-.4.5-.6 1.1-.6 1.9 0 .8.2 1.4.6 1.8.4.5.9.7 1.5.7s1.1-.2 1.5-.5c.1.2.1.7.1.7zm3.5-5c-.2-.1-.4-.2-.6-.2-.5 0-.9.2-1.2.7s-.5 1.2-.5 2v2.8h-.5v-5.9h.6v1.3c.1-.4.3-.8.6-1s.6-.4 1-.4c.2 0 .4 0 .6.1v.6zm.8-2.1c-.1 0-.2 0-.3-.1s-.1-.2-.1-.3 0-.2.1-.3.2-.1.3-.1.2 0 .3.1.1.2.1.3 0 .2-.1.3c0 .1-.1.1-.3.1zm-.2 7.4v-5.9h.5v5.9h-.5zm2.3-1.1v3.7h-.5v-8.6h.5v1.2c.2-.4.5-.8.9-1s.8-.3 1.3-.3c.8 0 1.3.3 1.8.8.4.5.6 1.2.6 2.1 0 1-.2 1.8-.7 2.4s-1.1.9-1.9.9c-.9 0-1.6-.4-2-1.2zm0-2.2v.7c0 .6.2 1.1.5 1.5.4.4.9.6 1.5.6s1.1-.3 1.5-.8.6-1.2.6-2c0-.7-.2-1.3-.5-1.8-.3-.4-.8-.7-1.4-.7-.7 0-1.2.2-1.6.7-.4.7-.6 1.2-.6 1.8zm7.8 3.2c-.3.1-.5.2-.8.2-.9 0-1.3-.5-1.3-1.6v-3.9h-1.1v-.5h1.1v-1.5l.3-.1.3-.1v1.7h1.5v.5h-1.5v3.9c0 .4.1.7.2.9.1.2.3.3.7.3.2 0 .4-.1.7-.2v.4h-.1z"/><path class="st1" d="M46.4 7.2L60 14.8v15.3l-13.6 7.7-13.6-7.7V14.8c.1 0 13.6-7.6 13.6-7.6z"/><path d="M57.6 29.6l-10.7 6V31l6.7-3.7 4 2.3zm.7-.6V16.3l-3.9 2.3v8.1l3.9 2.3zm-23 .6l10.7 6V31l-6.7-3.7-4 2.3zm-.8-.6V16.3l3.9 2.3v8.1L34.5 29zm.5-13.5l11-6.2v4.6l-7 3.9h-.1L35 15.5zm22.9 0l-11-6.2v4.6l7 3.9h.1l3.9-2.3z" fill="#8ed6fb"/><path d="M46 29.9l-6.6-3.6v-7.2l6.6 3.8v7zm.9 0l6.6-3.6v-7.2l-6.6 3.8v7zm-7.1-11.6l6.6-3.6 6.6 3.6-6.6 3.8-6.6-3.8z" fill="#1c78c0"/><path d="M14.3 7.2L0 12.3l2.2 18.9 12.1 6.7 12.1-6.7 2.2-18.9-14.3-5.1z" fill="#dd0031"/><path d="M14.3 7.2v30.7l12.1-6.7 2.2-18.9-14.3-5.1z" fill="#c3002f"/><path class="st1" d="M14.3 10.6l-8.9 20h3.3l1.8-4.5h7.6l1.8 4.5h3.3l-8.9-20zm2.6 12.7h-5.2l2.6-6.3 2.6 6.3z"/></svg>